<?xml version="1.0" encoding="utf-8"?>
<!-- Generator: Adobe Illustrator 23.0.5, SVG Export Plug-In . SVG Version: 6.00 Build 0)  -->
<svg version="1.1" id="Layer_1" xmlns="http://www.w3.org/2000/svg" xmlns:xlink="http://www.w3.org/1999/xlink" x="0px" y="0px"
	 viewBox="0 0 576 512" style="enable-background:new 0 0 576 512;" xml:space="preserve">
<style type="text/css">
	.st0{fill:#FFFFFF;}
</style>
<path class="st0" d="M0,80v48c0,17.7,14.3,32,32,32h16h48V80c0-26.5-21.5-48-48-48S0,53.5,0,80z M112,32c10,13.4,16,30,16,48v304
	c0,35.3,28.7,64,64,64s64-28.7,64-64v-5.3c0-32.4,26.3-58.7,58.7-58.7H480V128c0-53-43-96-96-96H112z M464,480
	c61.9,0,112-50.1,112-112c0-8.8-7.2-16-16-16H314.7c-14.7,0-26.7,11.9-26.7,26.7v5.3c0,53-43,96-96,96h176H464z"/>
</svg>
